<svg version="1.2" xmlns="http://www.w3.org/2000/svg" viewBox="0 0 966 570" width="966" height="570">
	<title>DWM-logo (1)-pdf</title>
	<defs>
		<clipPath clipPathUnits="userSpaceOnUse" id="cp1">
			<path d="m-362-309h1684v1191h-1684z"/>
		</clipPath>
	</defs>
	<style>
		.s0 { fill: #010101 } 
		.s1 { fill: #9d9e9e } 
	</style>
	<g id="Page 1" clip-path="url(#cp1)">
		<path id="Path 1" fill-rule="evenodd" class="s0" d="m563.5 382.2h-42.9l-69.2-274.5h42.9zm-508.8-298v-23.5h850.3v23.5zm850.4 321.4v23.5h-850.4v-23.5zm-817.3 65.4v-4.8l-3.9-3.6h-13.9l-3.9 3.6v9.5l2.9 2.5h22.5l8.4 7.2v18.7l-10.8 9.4h-23.6l-10.7-9.4v-11.1h11.3v6.9l4.2 3.7h14l4.2-3.7v-10.9l-2.9-2.6h-22.3l-8.5-7.5v-17.3l10.1-9h24.1l10.3 9v9.4zm199.2-8.9v51.4h-11.4v-51.4h-18.1v-9.5h47.5v9.5zm187.1 0.5v15.2h21.9v8.2h-21.9v17.6h31.1v9.9h-42.4v-60.9h42.3v10zm200.2 0v15.2h22v8.2h-22v17.6h31.1v9.9h-42.4v-60.9h42.3v10zm230.8 41v9.9h-41.9v-60.9h11.3v51zm-850.4-396h43.5v274.6h-43.5zm850.4 274.5h-42.3v-274.5h42.3zm-225.9-274.6h42.2v274.6h-42.2zm-279.2 274.5h-47.6l-64.3-274.5h42.7z"/>
		<path id="Path 2" class="s1" d="m793.4 203.3l52.2-90.1v88.7l-39.9 64.5h-27.2l-39.9-64.5v-88.1zm-619.6 132.1l30.7-27.1v-128l-29-25.9h-60.1v-46.8h78.7l61.3 54.2v163.9l-63.8 56.4h-76.2v-46.7zm219.3-50.9l44.8-160.2 23.1 91.8-45.2 158.5zm162.8-2.5l42.4-174.4h48.8l-66.3 273.1z"/>
	</g>
</svg>